<svg width="99" height="35" viewBox="0 0 99 35" fill="none" xmlns="http://www.w3.org/2000/svg">
<path d="M7.75994 27.3196C6.26847 27.3196 4.98153 26.9361 3.89915 26.169C2.82528 25.3935 2.05824 24.2557 1.59801 22.7557C1.13778 21.2472 1.09091 19.3977 1.45739 17.2074C1.83239 14.9574 2.50568 13.0866 3.47727 11.5952C4.44886 10.0952 5.59943 8.97443 6.92898 8.23295C8.25852 7.48295 9.64347 7.10795 11.0838 7.10795C12.1747 7.10795 13.0568 7.29545 13.7301 7.67045C14.4119 8.03693 14.9318 8.49716 15.2898 9.05114C15.6563 9.59659 15.9162 10.1335 16.0696 10.6619H16.2358L16.7727 7.36364H22.2443L18.9716 27H13.6023L14.1264 23.8551H13.8963C13.5554 24.4006 13.108 24.9418 12.554 25.4787C12 26.0071 11.3267 26.446 10.5341 26.7955C9.74148 27.1449 8.81676 27.3196 7.75994 27.3196ZM10.1506 22.9858C11.0284 22.9858 11.8168 22.7472 12.5156 22.2699C13.2145 21.7841 13.8026 21.1065 14.2798 20.2372C14.7571 19.3679 15.0895 18.3494 15.277 17.1818C15.473 16.0142 15.4773 15 15.2898 14.1392C15.1108 13.2784 14.7486 12.6136 14.2031 12.1449C13.6577 11.6761 12.9418 11.4418 12.0554 11.4418C11.1605 11.4418 10.3679 11.6847 9.67756 12.1705C8.99574 12.6562 8.42898 13.3295 7.97727 14.1903C7.53409 15.0511 7.21875 16.0483 7.03125 17.1818C6.83523 18.3239 6.81818 19.3338 6.98011 20.2116C7.15057 21.081 7.5 21.7628 8.02841 22.2571C8.55682 22.7429 9.26421 22.9858 10.1506 22.9858ZM59.6857 34.3636C58.9869 34.3636 58.3477 34.3082 57.7681 34.1974C57.1886 34.0952 56.7113 33.9631 56.3363 33.8011L58.2539 29.7358C58.859 29.9318 59.4087 30.0341 59.9031 30.0426C60.4059 30.0511 60.8661 29.9233 61.2837 29.6591C61.7013 29.3949 62.0849 28.9602 62.4343 28.3551L62.9201 27.5241L59.2383 7.36364H64.761L66.4229 21.8097H66.6275L73.1346 7.36364H79.1048L67.8675 29.1222C67.3136 30.1875 66.6573 31.1122 65.8988 31.8963C65.1488 32.6804 64.2582 33.2855 63.2269 33.7116C62.2042 34.1463 61.0238 34.3636 59.6857 34.3636ZM84.6147 19.1506L84.7042 18.652C84.9599 17.1776 85.2923 16.0014 85.7013 15.1236C86.119 14.2457 86.6218 13.5384 87.2099 13.0014C87.7979 12.456 88.4798 11.9616 89.2553 11.5185C89.8263 11.1776 90.3548 10.8239 90.8406 10.4574C91.3263 10.0909 91.7269 9.68608 92.0423 9.2429C92.3661 8.79119 92.5707 8.28835 92.6559 7.73438C92.7496 7.14631 92.6942 6.63068 92.4897 6.1875C92.2852 5.74432 91.9698 5.40341 91.5437 5.16477C91.1175 4.92614 90.6147 4.80682 90.0352 4.80682C89.4812 4.80682 88.9357 4.9304 88.3988 5.17756C87.8619 5.41619 87.3931 5.77415 86.9925 6.25142C86.6005 6.72017 86.3406 7.30398 86.2127 8.00284H80.9968C81.3121 6.29829 81.9471 4.89204 82.9016 3.78409C83.8647 2.66761 85.0281 1.83665 86.3917 1.29119C87.7638 0.737215 89.2298 0.460226 90.7894 0.460226C92.4684 0.460226 93.913 0.741476 95.1232 1.30398C96.3335 1.85795 97.2198 2.66335 97.7823 3.72017C98.3533 4.77699 98.5153 6.05114 98.2681 7.54261C98.1062 8.54829 97.7994 9.43892 97.3477 10.2145C96.9045 10.9815 96.3377 11.6634 95.6474 12.2599C94.957 12.848 94.1729 13.3722 93.2951 13.8324C92.5621 14.233 91.9442 14.6506 91.4414 15.0852C90.9386 15.5114 90.5337 16.0099 90.2269 16.581C89.9201 17.1435 89.6942 17.8338 89.5494 18.652L89.4599 19.1506H84.6147ZM86.0337 27.3324C85.1729 27.3324 84.4656 27.0341 83.9116 26.4375C83.3661 25.8409 83.119 25.1165 83.1701 24.2642C83.2298 23.4205 83.5835 22.7088 84.2312 22.1293C84.8874 21.5412 85.6417 21.2472 86.494 21.2472C87.3121 21.2472 88.0025 21.5412 88.565 22.1293C89.1275 22.7173 89.3746 23.429 89.3065 24.2642C89.2638 24.8267 89.0806 25.3423 88.7567 25.8111C88.4414 26.2713 88.0408 26.642 87.555 26.9233C87.0692 27.196 86.5621 27.3324 86.0337 27.3324Z" fill="black"/>
<path d="M38.56 0.818181L34.2134 27H28.6907L31.8995 7.59375H31.6566C31.418 7.88352 31.0387 8.18182 30.5188 8.48864C29.9989 8.78693 29.3597 9.03835 28.6012 9.2429C27.8427 9.43892 26.9819 9.53693 26.0188 9.53693L26.7347 5.1392C27.5785 5.1392 28.3668 4.99432 29.0998 4.70455C29.8327 4.40625 30.4847 4.03125 31.0558 3.57955C31.6268 3.11932 32.0913 2.64631 32.4492 2.16051C32.8157 1.66619 33.0458 1.21875 33.1396 0.818181H38.56ZM55.6108 0.818181L51.2642 27H45.7415L48.9503 7.59375H48.7074C48.4688 7.88352 48.0895 8.18182 47.5696 8.48864C47.0497 8.78693 46.4105 9.03835 45.652 9.2429C44.8935 9.43892 44.0327 9.53693 43.0696 9.53693L43.7855 5.1392C44.6293 5.1392 45.4176 4.99432 46.1506 4.70455C46.8835 4.40625 47.5355 4.03125 48.1065 3.57955C48.6776 3.11932 49.142 2.64631 49.5 2.16051C49.8665 1.66619 50.0966 1.21875 50.1903 0.818181H55.6108Z" fill="#A51D2D"/>
</svg>
